<?xml version="1.0"?>
<svg version="1.1" xmlns="http://www.w3.org/2000/svg" width="400px" height="300px" style="border: dashed 2px #aaa"><path fill="#" d="M55.5322265625,250.6865234375q0-0.603515625,0.40234375-4.27490234375t1.05615234375-8.9521484375t1.45849609375-11.3662109375t1.408203125-11.51708984375t1.05615234375-9.5556640625t0.45263671875-5.5322265625q-0.8046875-0.40234375-1.96142578125-1.15673828125t-1.15673828125-1.76025390625q0-1.408203125,1.35791015625-2.26318359375t2.36376953125-1.25732421875q0.40234375-5.1298828125,1.005859375-14.283203125t1.86083984375-19.76513671875t3.5205078125-21.525390625t5.98486328125-19.8154296875t8.9521484375-14.53466796875t12.875-5.6328125t12.673828125,4.828125t8.19775390625,12.5732421875t4.828125,17.2001953125t2.5146484375,18.8095703125t1.05615234375,17.501953125t0.40234375,13.076171875q0.201171875,3.1181640625,1.5087890625,4.17431640625t2.86669921875,1.45849609375t2.81640625,0.9052734375t1.25732421875,2.5146484375q0,2.3134765625-2.81640625,3.21875t-4.42578125,1.1064453125q1.005859375,12.5732421875,2.76611328125,24.744140625t4.67724609375,24.54296875q0.40234375,2.3134765625,1.1064453125,4.67724609375t0.7041015625,4.57666015625q0,1.609375-1.1064453125,2.66552734375t-2.86669921875,1.65966796875t-3.5205078125,0.8046875t-2.96728515625,0.201171875q-4.5263671875,0-7.64453125-1.7099609375t-4.1240234375-6.5380859375q-2.7158203125-12.9755859375-5.3310546875-27.2587890625q-2.212890625-12.3720703125-2.212890625-24.0400390625q0-1.810546875,0.1005859375-3.62109375q-8.44921875,0-16.9990234375,0.40234375t-16.3955078125,3.017578125q-0.201171875,2.7158203125-1.005859375,10.259765625t-1.810546875,16.1943359375t-2.06201171875,16.54638671875t-1.25732421875,11.21533203125q-0.201171875,1.408203125-2.06201171875,2.66552734375t-4.0234375,1.35791015625t-3.822265625-1.35791015625t-1.65966796875-5.18017578125z M74.341796875,189.7314453125q7.845703125-1.810546875,15.74169921875-2.1123046875t15.94287109375-0.7041015625q-0.40234375-2.5146484375-0.201171875-5.18017578125t0.201171875-5.38134765625q0-5.9345703125-0.3017578125-13.7802734375t-0.9052734375-15.892578125t-1.55908203125-15.84228515625t-2.16259765625-13.880859375t-2.56494140625-9.70654296875t-2.96728515625-3.62109375q-3.1181640625,0.201171875-5.88427734375,5.38134765625t-5.029296875,13.1767578125t-4.1240234375,17.904296875t-3.1181640625,19.36279296875t-2.06201171875,17.6025390625t-1.005859375,12.673828125z"/><path fill="#" d=""/></svg>
